<svg width="400" height="320" viewBox="0 0 400 320" fill="none" xmlns="http://www.w3.org/2000/svg">
<rect width="400" height="320" fill="#383838"/>
<path d="M83.6364 232V185.455H99.9091C103.152 185.455 105.826 186.015 107.932 187.136C110.038 188.242 111.606 189.735 112.636 191.614C113.667 193.477 114.182 195.545 114.182 197.818C114.182 199.818 113.826 201.47 113.114 202.773C112.417 204.076 111.492 205.106 110.341 205.864C109.205 206.621 107.97 207.182 106.636 207.545V208C108.061 208.091 109.492 208.591 110.932 209.5C112.371 210.409 113.576 211.712 114.545 213.409C115.515 215.106 116 217.182 116 219.636C116 221.97 115.47 224.068 114.409 225.932C113.348 227.795 111.674 229.273 109.386 230.364C107.098 231.455 104.121 232 100.455 232H83.6364ZM89.2727 227H100.455C104.136 227 106.75 226.288 108.295 224.864C109.856 223.424 110.636 221.682 110.636 219.636C110.636 218.061 110.235 216.606 109.432 215.273C108.629 213.924 107.485 212.848 106 212.045C104.515 211.227 102.758 210.818 100.727 210.818H89.2727V227ZM89.2727 205.909H99.7273C101.424 205.909 102.955 205.576 104.318 204.909C105.697 204.242 106.788 203.303 107.591 202.091C108.409 200.879 108.818 199.455 108.818 197.818C108.818 195.773 108.106 194.038 106.682 192.614C105.258 191.174 103 190.455 99.9091 190.455H89.2727V205.909ZM134.807 232.818C132.595 232.818 130.587 232.402 128.784 231.568C126.981 230.72 125.549 229.5 124.489 227.909C123.428 226.303 122.898 224.364 122.898 222.091C122.898 220.091 123.292 218.47 124.08 217.227C124.867 215.97 125.92 214.985 127.239 214.273C128.557 213.561 130.011 213.03 131.602 212.682C133.208 212.318 134.822 212.03 136.443 211.818C138.564 211.545 140.284 211.341 141.602 211.205C142.936 211.053 143.905 210.803 144.511 210.455C145.133 210.106 145.443 209.5 145.443 208.636V208.455C145.443 206.212 144.83 204.47 143.602 203.227C142.39 201.985 140.549 201.364 138.08 201.364C135.519 201.364 133.511 201.924 132.057 203.045C130.602 204.167 129.58 205.364 128.989 206.636L123.898 204.818C124.807 202.697 126.019 201.045 127.534 199.864C129.064 198.667 130.731 197.833 132.534 197.364C134.352 196.879 136.14 196.636 137.898 196.636C139.019 196.636 140.307 196.773 141.761 197.045C143.231 197.303 144.648 197.841 146.011 198.659C147.39 199.477 148.534 200.712 149.443 202.364C150.352 204.015 150.807 206.227 150.807 209V232H145.443V227.273H145.17C144.807 228.03 144.201 228.841 143.352 229.705C142.504 230.568 141.375 231.303 139.966 231.909C138.557 232.515 136.837 232.818 134.807 232.818ZM135.625 228C137.746 228 139.534 227.583 140.989 226.75C142.458 225.917 143.564 224.841 144.307 223.523C145.064 222.205 145.443 220.818 145.443 219.364V214.455C145.216 214.727 144.716 214.977 143.943 215.205C143.186 215.417 142.307 215.606 141.307 215.773C140.322 215.924 139.36 216.061 138.42 216.182C137.496 216.288 136.746 216.379 136.17 216.455C134.777 216.636 133.473 216.932 132.261 217.341C131.064 217.735 130.095 218.333 129.352 219.136C128.625 219.924 128.261 221 128.261 222.364C128.261 224.227 128.951 225.636 130.33 226.591C131.723 227.53 133.489 228 135.625 228ZM164.051 185.455L176.051 204.818H176.415L188.415 185.455H195.051L180.415 208.727L195.051 232H188.415L176.415 213H176.051L164.051 232H157.415L172.415 208.727L157.415 185.455H164.051ZM201.659 232V197.091H207.023V232H201.659ZM204.386 191.273C203.341 191.273 202.439 190.917 201.682 190.205C200.939 189.492 200.568 188.636 200.568 187.636C200.568 186.636 200.939 185.78 201.682 185.068C202.439 184.356 203.341 184 204.386 184C205.432 184 206.326 184.356 207.068 185.068C207.826 185.78 208.205 186.636 208.205 187.636C208.205 188.636 207.826 189.492 207.068 190.205C206.326 190.917 205.432 191.273 204.386 191.273ZM235.392 185.455H241.028V218.727C241.028 221.697 240.483 224.22 239.392 226.295C238.301 228.371 236.763 229.947 234.778 231.023C232.794 232.098 230.453 232.636 227.756 232.636C225.21 232.636 222.945 232.174 220.96 231.25C218.975 230.311 217.415 228.977 216.278 227.25C215.142 225.523 214.574 223.47 214.574 221.091H220.119C220.119 222.409 220.445 223.561 221.097 224.545C221.763 225.515 222.672 226.273 223.824 226.818C224.975 227.364 226.286 227.636 227.756 227.636C229.377 227.636 230.756 227.295 231.892 226.614C233.028 225.932 233.892 224.932 234.483 223.614C235.089 222.28 235.392 220.652 235.392 218.727V185.455ZM266.233 232.727C262.869 232.727 259.968 231.985 257.528 230.5C255.104 229 253.233 226.909 251.915 224.227C250.612 221.53 249.96 218.394 249.96 214.818C249.96 211.242 250.612 208.091 251.915 205.364C253.233 202.621 255.066 200.485 257.415 198.955C259.778 197.409 262.536 196.636 265.688 196.636C267.506 196.636 269.301 196.939 271.074 197.545C272.847 198.152 274.46 199.136 275.915 200.5C277.369 201.848 278.528 203.636 279.392 205.864C280.256 208.091 280.688 210.833 280.688 214.091V216.364H253.778V211.727H275.233C275.233 209.758 274.839 208 274.051 206.455C273.278 204.909 272.172 203.689 270.733 202.795C269.309 201.902 267.627 201.455 265.688 201.455C263.551 201.455 261.703 201.985 260.142 203.045C258.597 204.091 257.407 205.455 256.574 207.136C255.741 208.818 255.324 210.621 255.324 212.545V215.636C255.324 218.273 255.778 220.508 256.688 222.341C257.612 224.159 258.892 225.545 260.528 226.5C262.165 227.439 264.066 227.909 266.233 227.909C267.642 227.909 268.915 227.712 270.051 227.318C271.203 226.909 272.195 226.303 273.028 225.5C273.862 224.682 274.506 223.667 274.96 222.455L280.142 223.909C279.597 225.667 278.68 227.212 277.392 228.545C276.104 229.864 274.513 230.894 272.619 231.636C270.725 232.364 268.597 232.727 266.233 232.727ZM294.21 211V232H288.847V197.091H294.028V202.545H294.483C295.301 200.773 296.544 199.348 298.21 198.273C299.877 197.182 302.028 196.636 304.665 196.636C307.028 196.636 309.097 197.121 310.869 198.091C312.642 199.045 314.021 200.5 315.006 202.455C315.991 204.394 316.483 206.848 316.483 209.818V232H311.119V210.182C311.119 207.439 310.407 205.303 308.983 203.773C307.559 202.227 305.604 201.455 303.119 201.455C301.407 201.455 299.877 201.826 298.528 202.568C297.195 203.311 296.142 204.394 295.369 205.818C294.597 207.242 294.21 208.97 294.21 211Z" fill="white"/>
<path fill-rule="evenodd" clip-rule="evenodd" d="M203.994 116.656V158.759L216.869 151.126V122.923L222.538 118.664L228.125 122.923V144.537L240.919 137.145V116.575L228.773 106.933L241 97.211V79.695L228.125 72.061V90.783L222.376 94.8L216.95 90.783V65.6333L203.994 58V97.211L216.221 106.933L203.994 116.656Z" fill="#3D9942"/>
<path fill-rule="evenodd" clip-rule="evenodd" d="M185.37 108.219L195.411 102.353V58L158 79.855V98.577L161.725 101.389V116.736L158 118.664V136.984L195.411 159V114.647L185.37 108.219ZM182.536 80.177V97.291L176.22 100.987L170.632 97.854V86.926L182.536 80.177ZM176.139 115.45L170.713 118.664V129.672L182.455 136.502V119.307L176.139 115.45Z" fill="#3D9942"/>
<path fill-rule="evenodd" clip-rule="evenodd" d="M203.994 116.656V158.759L216.869 151.126V122.923L222.538 118.664L228.125 122.923V144.537L240.919 137.145V116.575L228.773 106.933L241 97.211V79.695L228.125 72.061V90.783L222.376 94.8L216.95 90.783V65.6333L203.994 58V97.211L216.221 106.933L203.994 116.656Z" stroke="#3D9942"/>
<path fill-rule="evenodd" clip-rule="evenodd" d="M185.37 108.219L195.411 102.353V58L158 79.855V98.577L161.725 101.389V116.736L158 118.664V136.984L195.411 159V114.647L185.37 108.219ZM182.536 80.177V97.291L176.22 100.987L170.632 97.854V86.926L182.536 80.177ZM176.139 115.45L170.713 118.664V129.672L182.455 136.502V119.307L176.139 115.45Z" stroke="#3D9942"/>
</svg>
