<svg width="400" height="400" viewBox="0 0 400 400" fill="none" xmlns="http://www.w3.org/2000/svg">
<rect width="400" height="400" fill="#FFFFFF"/>
<path d="M83.6364 262V215.455H99.9091C103.152 215.455 105.826 216.015 107.932 217.136C110.038 218.242 111.606 219.735 112.636 221.614C113.667 223.477 114.182 225.545 114.182 227.818C114.182 229.818 113.826 231.47 113.114 232.773C112.417 234.076 111.492 235.106 110.341 235.864C109.205 236.621 107.97 237.182 106.636 237.545V238C108.061 238.091 109.492 238.591 110.932 239.5C112.371 240.409 113.576 241.712 114.545 243.409C115.515 245.106 116 247.182 116 249.636C116 251.97 115.47 254.068 114.409 255.932C113.348 257.795 111.674 259.273 109.386 260.364C107.098 261.455 104.121 262 100.455 262H83.6364ZM89.2727 257H100.455C104.136 257 106.75 256.288 108.295 254.864C109.856 253.424 110.636 251.682 110.636 249.636C110.636 248.061 110.235 246.606 109.432 245.273C108.629 243.924 107.485 242.848 106 242.045C104.515 241.227 102.758 240.818 100.727 240.818H89.2727V257ZM89.2727 235.909H99.7273C101.424 235.909 102.955 235.576 104.318 234.909C105.697 234.242 106.788 233.303 107.591 232.091C108.409 230.879 108.818 229.455 108.818 227.818C108.818 225.773 108.106 224.038 106.682 222.614C105.258 221.174 103 220.455 99.9091 220.455H89.2727V235.909ZM134.807 262.818C132.595 262.818 130.587 262.402 128.784 261.568C126.981 260.72 125.549 259.5 124.489 257.909C123.428 256.303 122.898 254.364 122.898 252.091C122.898 250.091 123.292 248.47 124.08 247.227C124.867 245.97 125.92 244.985 127.239 244.273C128.557 243.561 130.011 243.03 131.602 242.682C133.208 242.318 134.822 242.03 136.443 241.818C138.564 241.545 140.284 241.341 141.602 241.205C142.936 241.053 143.905 240.803 144.511 240.455C145.133 240.106 145.443 239.5 145.443 238.636V238.455C145.443 236.212 144.83 234.47 143.602 233.227C142.39 231.985 140.549 231.364 138.08 231.364C135.519 231.364 133.511 231.924 132.057 233.045C130.602 234.167 129.58 235.364 128.989 236.636L123.898 234.818C124.807 232.697 126.019 231.045 127.534 229.864C129.064 228.667 130.731 227.833 132.534 227.364C134.352 226.879 136.14 226.636 137.898 226.636C139.019 226.636 140.307 226.773 141.761 227.045C143.231 227.303 144.648 227.841 146.011 228.659C147.39 229.477 148.534 230.712 149.443 232.364C150.352 234.015 150.807 236.227 150.807 239V262H145.443V257.273H145.17C144.807 258.03 144.201 258.841 143.352 259.705C142.504 260.568 141.375 261.303 139.966 261.909C138.557 262.515 136.837 262.818 134.807 262.818ZM135.625 258C137.746 258 139.534 257.583 140.989 256.75C142.458 255.917 143.564 254.841 144.307 253.523C145.064 252.205 145.443 250.818 145.443 249.364V244.455C145.216 244.727 144.716 244.977 143.943 245.205C143.186 245.417 142.307 245.606 141.307 245.773C140.322 245.924 139.36 246.061 138.42 246.182C137.496 246.288 136.746 246.379 136.17 246.455C134.777 246.636 133.473 246.932 132.261 247.341C131.064 247.735 130.095 248.333 129.352 249.136C128.625 249.924 128.261 251 128.261 252.364C128.261 254.227 128.951 255.636 130.33 256.591C131.723 257.53 133.489 258 135.625 258ZM164.051 215.455L176.051 234.818H176.415L188.415 215.455H195.051L180.415 238.727L195.051 262H188.415L176.415 243H176.051L164.051 262H157.415L172.415 238.727L157.415 215.455H164.051ZM201.659 262V227.091H207.023V262H201.659ZM204.386 221.273C203.341 221.273 202.439 220.917 201.682 220.205C200.939 219.492 200.568 218.636 200.568 217.636C200.568 216.636 200.939 215.78 201.682 215.068C202.439 214.356 203.341 214 204.386 214C205.432 214 206.326 214.356 207.068 215.068C207.826 215.78 208.205 216.636 208.205 217.636C208.205 218.636 207.826 219.492 207.068 220.205C206.326 220.917 205.432 221.273 204.386 221.273ZM235.392 215.455H241.028V248.727C241.028 251.697 240.483 254.22 239.392 256.295C238.301 258.371 236.763 259.947 234.778 261.023C232.794 262.098 230.453 262.636 227.756 262.636C225.21 262.636 222.945 262.174 220.96 261.25C218.975 260.311 217.415 258.977 216.278 257.25C215.142 255.523 214.574 253.47 214.574 251.091H220.119C220.119 252.409 220.445 253.561 221.097 254.545C221.763 255.515 222.672 256.273 223.824 256.818C224.975 257.364 226.286 257.636 227.756 257.636C229.377 257.636 230.756 257.295 231.892 256.614C233.028 255.932 233.892 254.932 234.483 253.614C235.089 252.28 235.392 250.652 235.392 248.727V215.455ZM266.233 262.727C262.869 262.727 259.968 261.985 257.528 260.5C255.104 259 253.233 256.909 251.915 254.227C250.612 251.53 249.96 248.394 249.96 244.818C249.96 241.242 250.612 238.091 251.915 235.364C253.233 232.621 255.066 230.485 257.415 228.955C259.778 227.409 262.536 226.636 265.688 226.636C267.506 226.636 269.301 226.939 271.074 227.545C272.847 228.152 274.46 229.136 275.915 230.5C277.369 231.848 278.528 233.636 279.392 235.864C280.256 238.091 280.688 240.833 280.688 244.091V246.364H253.778V241.727H275.233C275.233 239.758 274.839 238 274.051 236.455C273.278 234.909 272.172 233.689 270.733 232.795C269.309 231.902 267.627 231.455 265.688 231.455C263.551 231.455 261.703 231.985 260.142 233.045C258.597 234.091 257.407 235.455 256.574 237.136C255.741 238.818 255.324 240.621 255.324 242.545V245.636C255.324 248.273 255.778 250.508 256.688 252.341C257.612 254.159 258.892 255.545 260.528 256.5C262.165 257.439 264.066 257.909 266.233 257.909C267.642 257.909 268.915 257.712 270.051 257.318C271.203 256.909 272.195 256.303 273.028 255.5C273.862 254.682 274.506 253.667 274.96 252.455L280.142 253.909C279.597 255.667 278.68 257.212 277.392 258.545C276.104 259.864 274.513 260.894 272.619 261.636C270.725 262.364 268.597 262.727 266.233 262.727ZM294.21 241V262H288.847V227.091H294.028V232.545H294.483C295.301 230.773 296.544 229.348 298.21 228.273C299.877 227.182 302.028 226.636 304.665 226.636C307.028 226.636 309.097 227.121 310.869 228.091C312.642 229.045 314.021 230.5 315.006 232.455C315.991 234.394 316.483 236.848 316.483 239.818V262H311.119V240.182C311.119 237.439 310.407 235.303 308.983 233.773C307.559 232.227 305.604 231.455 303.119 231.455C301.407 231.455 299.877 231.826 298.528 232.568C297.195 233.311 296.142 234.394 295.369 235.818C294.597 237.242 294.21 238.97 294.21 241Z" fill="#1A1A1A"/>
<path d="M157.408 294.24H178.208V296.576H157.408V294.24ZM166.56 284.224H168.96V295.456H166.56V284.224ZM157.472 282.976H179.456V298.24H176.992V285.312H157.472V282.976ZM156.096 282.976H158.56V304.512C158.56 305.323 158.656 305.952 158.848 306.4C159.061 306.848 159.467 307.157 160.064 307.328C160.683 307.477 161.589 307.552 162.784 307.552C163.083 307.552 163.552 307.552 164.192 307.552C164.832 307.552 165.568 307.552 166.4 307.552C167.253 307.552 168.139 307.552 169.056 307.552C169.973 307.552 170.859 307.552 171.712 307.552C172.587 307.552 173.365 307.552 174.048 307.552C174.731 307.552 175.253 307.552 175.616 307.552C176.704 307.552 177.525 307.403 178.08 307.104C178.635 306.805 179.04 306.261 179.296 305.472C179.552 304.683 179.755 303.563 179.904 302.112C180.117 302.24 180.363 302.368 180.64 302.496C180.939 302.624 181.237 302.741 181.536 302.848C181.835 302.955 182.101 303.04 182.336 303.104C182.144 304.789 181.845 306.133 181.44 307.136C181.035 308.139 180.384 308.853 179.488 309.28C178.613 309.707 177.333 309.92 175.648 309.92C175.435 309.92 174.997 309.92 174.336 309.92C173.696 309.92 172.928 309.92 172.032 309.92C171.157 309.92 170.229 309.92 169.248 309.92C168.288 309.92 167.371 309.92 166.496 309.92C165.621 309.92 164.864 309.92 164.224 309.92C163.605 309.92 163.189 309.92 162.976 309.92C161.675 309.92 160.576 309.835 159.68 309.664C158.784 309.515 158.069 309.237 157.536 308.832C157.024 308.427 156.651 307.872 156.416 307.168C156.203 306.464 156.096 305.557 156.096 304.448V282.976ZM188.832 306.208H211.488V308.448H188.832V306.208ZM187.296 290.176H212.864V310.336H210.464V292.384H189.6V310.432H187.296V290.176ZM202.016 291.168H204.32V297.952C204.32 298.315 204.373 298.549 204.48 298.656C204.608 298.741 204.864 298.784 205.248 298.784C205.376 298.784 205.611 298.784 205.952 298.784C206.315 298.784 206.677 298.784 207.04 298.784C207.424 298.784 207.691 298.784 207.84 298.784C208.075 298.784 208.245 298.731 208.352 298.624C208.48 298.496 208.576 298.261 208.64 297.92C208.704 297.579 208.747 297.045 208.768 296.32C208.917 296.427 209.109 296.544 209.344 296.672C209.579 296.779 209.824 296.875 210.08 296.96C210.357 297.045 210.592 297.12 210.784 297.184C210.72 298.165 210.592 298.933 210.4 299.488C210.208 300.043 209.931 300.427 209.568 300.64C209.205 300.832 208.725 300.928 208.128 300.928C208 300.928 207.787 300.928 207.488 300.928C207.189 300.928 206.869 300.928 206.528 300.928C206.187 300.928 205.867 300.928 205.568 300.928C205.269 300.928 205.067 300.928 204.96 300.928C204.171 300.928 203.563 300.843 203.136 300.672C202.709 300.501 202.411 300.203 202.24 299.776C202.091 299.349 202.016 298.752 202.016 297.984V291.168ZM185.888 283.2H214.048V285.536H185.888V283.2ZM194.944 284.8H197.312V291.456H194.944V284.8ZM202.016 284.8H204.416V291.456H202.016V284.8ZM195.04 290.784H197.312V293.92C197.312 294.923 197.152 295.968 196.832 297.056C196.533 298.123 195.968 299.157 195.136 300.16C194.325 301.163 193.131 302.048 191.552 302.816C191.467 302.667 191.317 302.485 191.104 302.272C190.891 302.059 190.677 301.856 190.464 301.664C190.251 301.472 190.059 301.323 189.888 301.216C191.339 300.512 192.427 299.755 193.152 298.944C193.899 298.112 194.4 297.259 194.656 296.384C194.912 295.509 195.04 294.667 195.04 293.856V290.784ZM230.336 282.112H233.024C232.981 282.944 232.907 284.043 232.8 285.408C232.693 286.773 232.491 288.32 232.192 290.048C231.915 291.755 231.477 293.536 230.88 295.392C230.283 297.248 229.483 299.083 228.48 300.896C227.477 302.709 226.197 304.427 224.64 306.048C223.104 307.669 221.227 309.077 219.008 310.272C218.816 309.973 218.539 309.653 218.176 309.312C217.813 308.971 217.44 308.672 217.056 308.416C219.253 307.285 221.099 305.963 222.592 304.448C224.085 302.933 225.312 301.312 226.272 299.584C227.232 297.856 227.979 296.117 228.512 294.368C229.045 292.597 229.44 290.912 229.696 289.312C229.952 287.712 230.112 286.293 230.176 285.056C230.261 283.797 230.315 282.816 230.336 282.112ZM232.896 282.752C232.917 283.115 232.96 283.744 233.024 284.64C233.109 285.515 233.259 286.581 233.472 287.84C233.685 289.099 233.995 290.464 234.4 291.936C234.805 293.408 235.349 294.923 236.032 296.48C236.715 298.037 237.557 299.552 238.56 301.024C239.563 302.496 240.768 303.861 242.176 305.12C243.584 306.357 245.237 307.403 247.136 308.256C246.773 308.533 246.421 308.853 246.08 309.216C245.76 309.6 245.493 309.952 245.28 310.272C243.36 309.355 241.664 308.235 240.192 306.912C238.741 305.568 237.493 304.117 236.448 302.56C235.424 300.981 234.56 299.371 233.856 297.728C233.173 296.085 232.619 294.485 232.192 292.928C231.765 291.349 231.445 289.888 231.232 288.544C231.019 287.179 230.869 286.016 230.784 285.056C230.699 284.075 230.645 283.371 230.624 282.944L232.896 282.752Z" fill="#3D9942"/>
<path fill-rule="evenodd" clip-rule="evenodd" d="M203.994 146.656V188.759L216.869 181.126V152.923L222.538 148.664L228.125 152.923V174.537L240.919 167.145V146.575L228.773 136.933L241 127.211V109.695L228.125 102.061V120.783L222.376 124.8L216.95 120.783V95.6333L203.994 88V127.211L216.221 136.933L203.994 146.656Z" fill="#3D9942"/>
<path fill-rule="evenodd" clip-rule="evenodd" d="M185.37 138.219L195.411 132.353V88L158 109.855V128.577L161.725 131.389V146.736L158 148.664V166.984L195.411 189V144.647L185.37 138.219ZM182.536 110.177V127.291L176.22 130.987L170.632 127.854V116.926L182.536 110.177ZM176.139 145.45L170.713 148.664V159.672L182.455 166.502V149.307L176.139 145.45Z" fill="#3D9942"/>
<path fill-rule="evenodd" clip-rule="evenodd" d="M203.994 146.656V188.759L216.869 181.126V152.923L222.538 148.664L228.125 152.923V174.537L240.919 167.145V146.575L228.773 136.933L241 127.211V109.695L228.125 102.061V120.783L222.376 124.8L216.95 120.783V95.6333L203.994 88V127.211L216.221 136.933L203.994 146.656Z" stroke="#3D9942"/>
<path fill-rule="evenodd" clip-rule="evenodd" d="M185.37 138.219L195.411 132.353V88L158 109.855V128.577L161.725 131.389V146.736L158 148.664V166.984L195.411 189V144.647L185.37 138.219ZM182.536 110.177V127.291L176.22 130.987L170.632 127.854V116.926L182.536 110.177ZM176.139 145.45L170.713 148.664V159.672L182.455 166.502V149.307L176.139 145.45Z" stroke="#3D9942"/>
</svg>
