<svg width="200" height="200" viewBox="0 0 200 200" fill="none" xmlns="http://www.w3.org/2000/svg">
<rect width="200" height="200" fill="#FFFFFF"/>
<path fill-rule="evenodd" clip-rule="evenodd" d="M103.994 96.656V138.759L116.869 131.126V102.923L122.538 98.664L128.125 102.923V124.537L140.919 117.145V96.575L128.773 86.933L141 77.211V59.695L128.125 52.061V70.783L122.376 74.8L116.95 70.783V45.6333L103.994 38V77.211L116.221 86.933L103.994 96.656Z" fill="#3D9942"/>
<path fill-rule="evenodd" clip-rule="evenodd" d="M85.37 88.219L95.411 82.353V38L58 59.855V78.577L61.725 81.389V96.736L58 98.664V116.984L95.411 139V94.647L85.37 88.219ZM82.536 60.177V77.291L76.22 80.987L70.632 77.854V66.926L82.536 60.177ZM76.139 95.45L70.713 98.664V109.672L82.455 116.502V99.307L76.139 95.45Z" fill="#3D9942"/>
<path fill-rule="evenodd" clip-rule="evenodd" d="M103.994 96.656V138.759L116.869 131.126V102.923L122.538 98.664L128.125 102.923V124.537L140.919 117.145V96.575L128.773 86.933L141 77.211V59.695L128.125 52.061V70.783L122.376 74.8L116.95 70.783V45.6333L103.994 38V77.211L116.221 86.933L103.994 96.656Z" stroke="#3D9942"/>
<path fill-rule="evenodd" clip-rule="evenodd" d="M85.37 88.219L95.411 82.353V38L58 59.855V78.577L61.725 81.389V96.736L58 98.664V116.984L95.411 139V94.647L85.37 88.219ZM82.536 60.177V77.291L76.22 80.987L70.632 77.854V66.926L82.536 60.177ZM76.139 95.45L70.713 98.664V109.672L82.455 116.502V99.307L76.139 95.45Z" stroke="#3D9942"/>
</svg>
